<svg width="74" height="22" viewBox="0 0 74 22" fill="none" xmlns="http://www.w3.org/2000/svg">
<path d="M46.4173 5.7445C49.6429 5.7445 51.8777 8.47563 51.8777 11.6122C51.8777 14.7698 49.6641 17.4157 46.4595 17.4157C45.2184 17.4157 43.9356 16.9698 43.1134 16.0149C43.111 16.0121 43.1073 16.0135 43.1073 16.0169V19.3573C43.1073 20.6341 42.0845 21.6691 40.8229 21.6691H39.2703V6.1072H43.1073V7.31713C43.1073 7.33251 43.1194 7.34474 43.1346 7.34474C43.1433 7.34474 43.1524 7.34002 43.1575 7.33251C43.8548 6.25277 45.1572 5.7445 46.4173 5.7445ZM59.7415 5.7445C62.967 5.7445 65.2018 8.47563 65.2018 11.6122C65.2018 14.7698 62.9882 17.4157 59.7836 17.4157C58.5634 17.4157 57.3028 16.9848 56.4788 16.0622C56.4624 16.0431 56.4314 16.0547 56.4314 16.0803V19.3573C56.4314 20.6341 55.4087 21.6691 54.1471 21.6691H52.6218C52.6066 21.6691 52.5945 21.6569 52.5945 21.6415V6.13481C52.5945 6.1198 52.6066 6.1072 52.6218 6.1072H56.4041C56.4192 6.1072 56.4314 6.1198 56.4314 6.13481V7.31713C56.4314 7.33251 56.4436 7.34474 56.4587 7.34474C56.4678 7.34474 56.4765 7.34002 56.4816 7.33251C57.1793 6.25277 58.4813 5.7445 59.7415 5.7445ZM6.98797 0.538452C8.58161 0.538452 10.5301 1.04515 11.9408 1.84837C11.9534 1.8555 11.9584 1.87191 11.9517 1.88479L11.3642 3.04329C10.8616 4.03472 9.73237 4.51852 8.67629 4.20207C8.32185 4.09606 7.95304 4.03777 7.57846 4.03777C6.8195 4.03777 5.80746 4.48572 5.80746 5.38207C5.80746 6.32059 6.92489 6.68337 7.64145 6.91828L8.69579 7.23807C10.9094 7.89979 12.617 9.03031 12.617 11.6336C12.617 13.2336 12.2377 14.8765 10.9728 15.9647C9.7287 17.0315 8.06319 17.4798 6.46103 17.4798C4.46644 17.4798 2.51323 16.8024 0.893956 15.6589C0.882511 15.6508 0.879123 15.6354 0.885533 15.6232L2.64499 12.2739C3.67818 13.191 4.90072 13.938 6.31316 13.938C7.28335 13.938 8.31617 13.447 8.31617 12.3165C8.31617 11.1427 6.69278 10.7373 5.80746 10.4813C3.21433 9.73466 1.50642 9.05181 1.50642 5.93677C1.50642 2.67198 3.80454 0.538452 6.98797 0.538452ZM30.9072 5.7445C32.1267 5.7445 33.4069 6.19588 34.2116 7.11808C34.2284 7.13717 34.2594 7.12559 34.2594 7.10001V6.13481C34.2594 6.1198 34.2718 6.1072 34.2867 6.1072H38.0694C38.0845 6.1072 38.0967 6.1198 38.0967 6.13481V14.7412C38.0967 16.0179 37.0739 17.053 35.812 17.053H34.2867C34.2718 17.053 34.2594 17.0407 34.2594 17.0254V15.8645C34.2594 15.8492 34.2473 15.8369 34.2321 15.8369C34.223 15.8369 34.2142 15.8417 34.2096 15.8496C33.5325 16.9289 32.2096 17.4157 30.9497 17.4157C27.7451 17.4157 25.489 14.7061 25.489 11.5695C25.489 8.43301 27.7026 5.7445 30.9072 5.7445ZM68.3886 12.5013C69.7283 12.5013 70.8161 13.6021 70.8161 14.958C70.8161 16.3139 69.7283 17.4151 68.3886 17.4151C67.0485 17.4151 65.9607 16.3139 65.9607 14.958C65.9607 13.6021 67.0485 12.5013 68.3886 12.5013ZM20.692 5.74446C23.6012 5.74446 24.7608 7.60082 24.7608 10.2893V14.7412C24.7608 16.018 23.738 17.053 22.4765 17.053H20.951C20.9359 17.053 20.9239 17.0407 20.9239 17.0254V11.7189C20.9239 10.6732 21.0926 8.83837 19.195 8.83837C17.6349 8.83837 17.192 10.0118 17.192 11.3776V14.7412C17.192 16.018 16.1696 17.053 14.908 17.053H13.3823C13.3672 17.053 13.355 17.0407 13.355 17.0254V6.13476C13.355 6.11984 13.3672 6.10724 13.3823 6.10724H17.1647C17.1799 6.10724 17.192 6.11984 17.192 6.13476V7.48796C17.192 7.49821 17.1975 7.50707 17.2057 7.51183L17.2199 7.51557C17.229 7.51557 17.2375 7.51075 17.2425 7.50334C18.1264 6.19009 19.1997 5.74446 20.692 5.74446ZM31.9191 9.11586C30.3591 9.11586 29.4526 10.2467 29.4526 11.5907C29.4526 12.9776 30.3591 14.0446 31.9191 14.0446C33.4795 14.0446 34.3861 12.9776 34.3861 11.5907C34.3861 10.2467 33.4795 9.11586 31.9191 9.11586ZM45.4475 9.11586C43.8871 9.11586 42.9806 10.2467 42.9806 11.5907C42.9806 12.9776 43.8871 14.0446 45.4475 14.0446C47.0075 14.0446 47.9141 12.9776 47.9141 11.5907C47.9141 10.2467 47.0075 9.11586 45.4475 9.11586ZM58.7716 9.11586C57.2112 9.11586 56.3051 10.2467 56.3051 11.5907C56.3051 12.9776 57.2112 14.0446 58.7716 14.0446C60.3317 14.0446 61.2385 12.9776 61.2385 11.5907C61.2385 10.2467 60.3317 9.11586 58.7716 9.11586ZM73.6305 0.965343L71.4743 9.33034C71.2229 10.3161 70.3686 11.0162 69.3731 11.0686L69.253 11.0718H67.0913L69.6915 0.965343H73.6305ZM67.7486 0.966169L67.9494 1.4979L68.1501 0.966169H68.4634V1.86499H68.2693V1.13966H68.2649L68.0066 1.86499H67.892L67.6338 1.13966H67.6295V1.86499H67.4353V0.966169H67.7486ZM67.3271 0.966169V1.13966H67.0557V1.86499H66.8418V1.13966H66.5704V0.966169H67.3271Z" fill="#22A958"/>
</svg>
